<svg width="767" height="277" viewBox="0 0 767 277" fill="none" xmlns="http://www.w3.org/2000/svg">
<path fill-rule="evenodd" clip-rule="evenodd" d="M147.699 89.7262C147.525 89.8536 147.352 89.9807 147.179 90.1075L147.193 90.0978C147.361 89.9743 147.53 89.8504 147.699 89.7262Z" fill="#BADA55"/>
<path d="M334.915 232.5C364.391 209.68 378.234 190.167 383.458 178.985C388.682 190.167 402.525 209.68 432 232.5C478.5 268.5 572 296 659.5 259C747 222 777.05 140.6 764 92C750.95 43.4 698 23.6667 665.5 19C667.406 20.4106 669.853 21.673 672.697 23.1402C682.286 28.087 696.389 35.3625 709.5 58.5C726.5 88.5 715 120 687 120C660.444 120 645.132 108.756 619.736 90.1075C618.355 89.0934 616.944 88.0573 615.5 87C609.407 82.5388 602.343 75.8992 594.194 68.2406C564.899 40.7061 521.591 0 459 0C419.163 0 393.79 18.7835 383.458 31.071C373.125 18.7835 347.752 0 307.915 0C245.325 0 202.016 40.7061 172.721 68.2406C164.573 75.8992 157.509 82.5388 151.415 87C149.976 88.054 148.569 89.0868 147.193 90.0978L147.179 90.1075C121.783 108.756 106.471 120 79.9155 120C51.9155 120 40.4155 88.5 57.4155 58.5C70.5268 35.3625 84.6294 28.087 94.2183 23.1402C97.0623 21.673 99.5093 20.4106 101.415 19C68.9155 23.6667 15.9655 43.4 2.9155 92C-10.1345 140.6 19.9155 222 107.415 259C194.915 296 288.415 268.5 334.915 232.5Z" fill="#BADA55"/>
</svg>
